<svg xmlns="http://www.w3.org/2000/svg" xmlns:xlink="http://www.w3.org/1999/xlink" width="0" height="0" style="display:none;"><symbol viewBox="0 0 30 36" id="undefined-01706787474641">
<g clip-path="url(#clip0_10_80)">
<path d="M27.2 8.2C25.97 5.53 24.27 3.5 22.1 2.1C19.93 0.7 17.5 0 14.8 0C12.1 0 9.61999 0.7 7.46999 2.1C5.31999 3.5 3.61999 5.53 2.36999 8.2C1.11999 10.87 0.48999 14.1 0.48999 17.9C0.48999 21.7 1.10999 24.93 2.36999 27.6C3.61999 30.27 5.31999 32.3 7.46999 33.7C9.61999 35.1 12.06 35.8 14.8 35.8C17.54 35.8 19.93 35.1 22.1 33.7C24.27 32.3 25.97 30.27 27.2 27.6C28.43 24.93 29.05 21.7 29.05 17.9C29.05 14.1 28.43 10.87 27.2 8.2ZM22.87 25.35C22.09 27.35 21 28.85 19.62 29.85C18.24 30.85 16.63 31.35 14.8 31.35C12.97 31.35 11.35 30.85 9.94999 29.85C8.54999 28.85 7.45999 27.35 6.67999 25.35C5.89999 23.35 5.49999 20.87 5.49999 17.9C5.49999 14.93 5.88999 12.45 6.67999 10.45C7.45999 8.45 8.55999 6.95 9.94999 5.95C11.34 4.95 12.97 4.45 14.8 4.45C16.63 4.45 18.24 4.95 19.62 5.95C21 6.95 22.09 8.45 22.87 10.45C23.65 12.45 24.05 14.93 24.05 17.9C24.05 20.87 23.66 23.35 22.87 25.35Z" fill="black"></path>
</g>
<defs>
<clippath id="clip0_10_80">
<rect width="28.55" height="35.8" fill="white" transform="translate(0.5)"></rect>
</clippath>
</defs>
</symbol><symbol viewBox="0 0 14 35" id="undefined-11706787474641">
<g clip-path="url(#clip0_10_82)">
<path d="M0.5 0V4.35H8.4V35H13.35V0H0.5Z" fill="black"></path>
</g>
<defs>
<clippath id="clip0_10_82">
<rect width="12.85" height="35" fill="white" transform="translate(0.5)"></rect>
</clippath>
</defs>
</symbol><symbol viewBox="0 0 27 36" id="undefined-21706787474641">
<g clip-path="url(#clip0_10_98)">
<path d="M8.87 31.05L19.55 20.75C21.12 19.22 22.32 17.83 23.15 16.6C23.98 15.37 24.55 14.2 24.85 13.1C25.15 12 25.3 10.88 25.3 9.75C25.3 7.75 24.81 6.02 23.82 4.55C22.84 3.08 21.44 1.96 19.65 1.17C17.85 0.39 15.73 0 13.3 0C10.6 0 8.13 0.46 5.88 1.38C3.63 2.3 1.83 3.6 0.5 5.3L3.9 8.25C5 6.95 6.3 5.99 7.8 5.37C9.3 4.75 10.98 4.44 12.85 4.44C15.28 4.44 17.13 4.96 18.4 5.99C19.67 7.02 20.3 8.44 20.3 10.24C20.3 10.97 20.19 11.73 19.97 12.51C19.75 13.29 19.34 14.14 18.72 15.06C18.1 15.98 17.16 17.04 15.9 18.24L1.65 32V35.4H26.8V31.05H8.87Z" fill="black"></path>
</g>
<defs>
<clippath id="clip0_10_98">
<rect width="26.3" height="35.4" fill="white" transform="translate(0.5)"></rect>
</clippath>
</defs>
</symbol><symbol viewBox="0 0 27 36" id="undefined-31706787474642">
<g clip-path="url(#clip0_10_84)">
<path d="M23.42 17.45C21.68 15.88 19.2 14.98 16.02 14.7L25.2 3.4V0H2.1V4.35H18.92L10.15 15.15V18.65H12.95C15.95 18.65 18.14 19.21 19.52 20.32C20.9 21.44 21.6 22.91 21.6 24.74C21.6 26.57 20.87 28.15 19.42 29.27C17.97 30.39 15.95 30.94 13.35 30.94C11.22 30.94 9.22 30.59 7.35 29.89C5.48 29.19 3.97 28.29 2.8 27.19L0.5 31.14C1.97 32.44 3.86 33.47 6.17 34.24C8.49 35.01 10.88 35.39 13.35 35.39C16.35 35.39 18.83 34.91 20.77 33.97C22.72 33.02 24.18 31.73 25.15 30.09C26.12 28.46 26.6 26.66 26.6 24.69C26.6 21.76 25.54 19.34 23.42 17.44V17.45Z" fill="black"></path>
</g>
<defs>
<clippath id="clip0_10_84">
<rect width="26.1" height="35.4" fill="white" transform="translate(0.5)"></rect>
</clippath>
</defs>
</symbol><symbol viewBox="0 0 32 35" id="undefined-41706787474642">
<g clip-path="url(#clip0_10_96)">
<path d="M31.45 22.1H24.8V14.5H20.1V22.1H6.67L23.8 0H18.4L0.5 22.9V26.4H19.95V35H24.8V26.4H31.45V22.1Z" fill="black"></path>
</g>
<defs>
<clippath id="clip0_10_96">
<rect width="30.95" height="35" fill="white" transform="translate(0.5)"></rect>
</clippath>
</defs>
</symbol><symbol viewBox="0 0 27 36" id="undefined-51706787474642">
<g clip-path="url(#clip0_10_92)">
<path d="M25.15 19.03C24.18 17.45 22.63 16.2 20.5 15.3C18.37 14.4 15.55 13.95 12.05 13.95H8.14L9.1 4.35H24.65V0H4.9L3.05 18.3H11C13.7 18.3 15.82 18.56 17.38 19.08C18.93 19.6 20.02 20.34 20.65 21.3C21.28 22.27 21.6 23.4 21.6 24.7C21.6 26.6 20.88 28.12 19.45 29.25C18.02 30.38 15.97 30.95 13.3 30.95C11.2 30.95 9.22 30.6 7.35 29.9C5.48 29.2 3.97 28.3 2.8 27.2L0.5 31.15C1.97 32.45 3.86 33.48 6.17 34.25C8.49 35.02 10.88 35.4 13.35 35.4C16.35 35.4 18.82 34.91 20.77 33.92C22.72 32.94 24.18 31.62 25.15 29.97C26.12 28.32 26.6 26.49 26.6 24.49C26.6 22.49 26.12 20.6 25.15 19.02V19.03Z" fill="black"></path>
</g>
<defs>
<clippath id="clip0_10_92">
<rect width="26.1" height="35.4" fill="white" transform="translate(0.5)"></rect>
</clippath>
</defs>
</symbol><symbol viewBox="0 0 28 36" id="undefined-61706787474642">
<g clip-path="url(#clip0_10_86)">
<path d="M26.05 19.12C25.02 17.54 23.6 16.31 21.8 15.44C20 14.57 17.93 14.14 15.6 14.14C13.83 14.14 12.19 14.4 10.68 14.92C9.16 15.44 7.86 16.22 6.78 17.27C6.31 17.73 5.9 18.24 5.54 18.79C5.52 18.32 5.51 17.88 5.51 17.49C5.51 13.12 6.56 9.82998 8.66 7.60998C10.76 5.38998 13.59 4.27998 17.16 4.27998C18.43 4.27998 19.64 4.39998 20.78 4.62998C21.93 4.85998 22.96 5.29998 23.86 5.92998L25.76 2.02998C24.66 1.32998 23.35 0.80998 21.84 0.47998C20.32 0.14998 18.73 -0.0200195 17.07 -0.0200195C13.84 -0.0200195 10.97 0.67998 8.47 2.07998C5.97 3.47998 4.02 5.54998 2.62 8.27998C1.22 11.01 0.5 14.38 0.5 18.35C0.5 22.08 1.08 25.24 2.23 27.82C3.38 30.4 5.06 32.38 7.25 33.75C9.45 35.12 12.1 35.8 15.2 35.8C17.53 35.8 19.63 35.35 21.5 34.45C23.37 33.55 24.85 32.27 25.95 30.6C27.05 28.93 27.6 26.98 27.6 24.75C27.6 22.52 27.08 20.71 26.05 19.13V19.12ZM21.75 28.52C21.08 29.54 20.18 30.33 19.02 30.9C17.87 31.47 16.53 31.75 15 31.75C13.2 31.75 11.68 31.43 10.45 30.8C9.22 30.17 8.28 29.34 7.65 28.32C7.02 27.3 6.7 26.2 6.7 25C6.7 23.7 7.04 22.54 7.72 21.52C8.4 20.5 9.34 19.69 10.55 19.1C11.75 18.5 13.15 18.2 14.75 18.2C17.22 18.2 19.17 18.81 20.6 20.03C22.03 21.25 22.75 22.89 22.75 24.95C22.75 26.32 22.42 27.51 21.75 28.53V28.52Z" fill="black"></path>
</g>
<defs>
<clippath id="clip0_10_86">
<rect width="27.1" height="35.8" fill="white" transform="translate(0.5)"></rect>
</clippath>
</defs>
</symbol><symbol viewBox="0 0 27 35" id="undefined-71706787474642">
<g clip-path="url(#clip0_10_88)">
<path d="M0.5 0V10.6H5.3V4.35H21.28L7.45 35H12.75L26.9 3.4V0H0.5Z" fill="black"></path>
</g>
<defs>
<clippath id="clip0_10_88">
<rect width="26.4" height="35" fill="white" transform="translate(0.5)"></rect>
</clippath>
</defs>
</symbol><symbol viewBox="0 0 29 36" id="undefined-81706787474642">
<g clip-path="url(#clip0_10_94)">
<path d="M26.65 20.25C25.59 18.84 24.07 17.77 22.1 17.02C23.55 16.34 24.71 15.44 25.55 14.32C26.55 12.97 27.05 11.36 27.05 9.49999C27.05 7.52999 26.52 5.83999 25.45 4.41999C24.38 2.99999 22.9 1.90999 21 1.13999C19.1 0.36999 16.88 -0.0100098 14.35 -0.0100098C11.82 -0.0100098 9.65 0.36999 7.75 1.13999C5.85 1.90999 4.37 2.99999 3.33 4.41999C2.28 5.83999 1.75 7.52999 1.75 9.49999C1.75 11.47 2.25 12.97 3.25 14.32C4.08 15.44 5.22 16.33 6.64 17.01C4.68 17.76 3.17 18.82 2.12 20.22C1.04 21.67 0.5 23.43 0.5 25.5C0.5 27.57 1.07 29.42 2.2 30.97C3.33 32.52 4.93 33.71 7 34.55C9.07 35.38 11.52 35.8 14.35 35.8C17.18 35.8 19.65 35.38 21.75 34.55C23.85 33.72 25.47 32.52 26.6 30.97C27.73 29.42 28.3 27.59 28.3 25.5C28.3 23.41 27.75 21.72 26.65 20.25ZM8.77 5.54999C10.15 4.54999 12.01 4.04999 14.35 4.04999C16.69 4.04999 18.57 4.54999 20 5.54999C21.43 6.54999 22.15 7.92999 22.15 9.69999C22.15 11.47 21.46 12.8 20.08 13.8C18.7 14.8 16.79 15.3 14.35 15.3C11.91 15.3 10.08 14.8 8.73 13.8C7.38 12.8 6.71 11.43 6.71 9.69999C6.71 7.96999 7.4 6.54999 8.78 5.54999H8.77ZM20.92 30.02C19.34 31.17 17.14 31.75 14.34 31.75C11.54 31.75 9.41 31.17 7.84 30.02C6.27 28.87 5.49 27.31 5.49 25.35C5.49 23.39 6.27 21.89 7.84 20.77C9.41 19.65 11.57 19.1 14.34 19.1C17.11 19.1 19.33 19.66 20.92 20.77C22.5 21.89 23.3 23.41 23.3 25.35C23.3 27.29 22.51 28.88 20.92 30.02Z" fill="black"></path>
</g>
<defs>
<clippath id="clip0_10_94">
<rect width="27.8" height="35.8" fill="white" transform="translate(0.5)"></rect>
</clippath>
</defs>
</symbol><symbol viewBox="0 0 28 36" id="undefined-91706787474642">
<g clip-path="url(#clip0_10_90)">
<path d="M25.85 7.97C24.72 5.39 23.06 3.41 20.88 2.05C18.69 0.68 16.02 0 12.85 0C10.55 0 8.46 0.45 6.58 1.35C4.7 2.25 3.21 3.52 2.12 5.17C1.04 6.82 0.5 8.78 0.5 11.05C0.5 13.32 1.02 15.09 2.05 16.67C3.08 18.25 4.5 19.48 6.3 20.34C8.1 21.21 10.15 21.64 12.45 21.64C14.25 21.64 15.91 21.38 17.43 20.87C18.95 20.35 20.25 19.57 21.33 18.52C21.79 18.08 22.18 17.58 22.52 17.05C22.54 17.5 22.55 17.92 22.55 18.29C22.55 22.66 21.5 25.95 19.4 28.17C17.3 30.39 14.48 31.5 10.95 31.5C9.68 31.5 8.48 31.38 7.33 31.12C6.18 30.87 5.14 30.44 4.21 29.84L2.31 33.74C3.44 34.44 4.77 34.96 6.28 35.29C7.79 35.62 9.37 35.79 11.01 35.79C14.31 35.79 17.19 35.09 19.66 33.69C22.13 32.29 24.06 30.22 25.46 27.49C26.86 24.76 27.56 21.41 27.56 17.44C27.56 13.71 26.99 10.55 25.86 7.97H25.85ZM20.38 14.25C19.7 15.28 18.75 16.1 17.53 16.7C16.31 17.3 14.91 17.6 13.31 17.6C10.88 17.6 8.94 16.99 7.51 15.77C6.08 14.55 5.36 12.91 5.36 10.85C5.36 9.45 5.69 8.25 6.33 7.25C6.98 6.25 7.89 5.47 9.06 4.9C10.23 4.33 11.56 4.05 13.06 4.05C14.89 4.05 16.43 4.37 17.66 5C18.89 5.63 19.83 6.45 20.46 7.45C21.09 8.45 21.41 9.57 21.41 10.8C21.41 12.03 21.07 13.22 20.39 14.25H20.38Z" fill="black"></path>
</g>
<defs>
<clippath id="clip0_10_90">
<rect width="27.05" height="35.8" fill="white" transform="translate(0.5)"></rect>
</clippath>
</defs>
</symbol><symbol viewBox="0 0 38 35" id="undefined-A1706787474623">
<g clip-path="url(#clip0_11_109)">
<path d="M31.95 35H37.2L21.3 0H16.35L0.5 35H5.65L9.5 26.25H28.11L31.96 35H31.95ZM11.25 22.25L18.8 5.08L26.35 22.25H11.26H11.25Z" fill="black"></path>
</g>
<defs>
<clippath id="clip0_11_109">
<rect width="36.7" height="35" fill="white" transform="translate(0.5)"></rect>
</clippath>
</defs>
</symbol><symbol viewBox="0 0 31 35" id="undefined-B1706787474629">
<g clip-path="url(#clip0_11_139)">
<path d="M29.25 20.52C28.35 19.17 27.13 18.14 25.6 17.45C25.09 17.22 24.54 17.04 23.98 16.88C24 16.87 24.03 16.86 24.05 16.85C25.48 16.15 26.63 15.15 27.48 13.85C28.33 12.55 28.75 10.95 28.75 9.05001C28.75 6.25001 27.67 4.04001 25.5 2.43001C23.33 0.81001 20.23 0.0100098 16.2 0.0100098H0.5V35.01H17.2C21.63 35.01 24.97 34.18 27.22 32.53C29.47 30.88 30.6 28.55 30.6 25.55C30.6 23.55 30.15 21.88 29.25 20.53V20.52ZM15.75 4.05001C18.28 4.05001 20.25 4.52001 21.65 5.45001C23.05 6.38001 23.75 7.78001 23.75 9.65001C23.75 11.52 23.05 12.92 21.65 13.85C20.25 14.78 18.28 15.25 15.75 15.25H5.5V4.05001H15.75ZM23.35 29.55C21.88 30.48 19.77 30.95 17 30.95H5.5V19.3H17C19.77 19.3 21.88 19.77 23.35 20.7C24.82 21.63 25.55 23.12 25.55 25.15C25.55 27.18 24.82 28.62 23.35 29.55Z" fill="black"></path>
</g>
<defs>
<clippath id="clip0_11_139">
<rect width="30.1" height="35" fill="white" transform="translate(0.5)"></rect>
</clippath>
</defs>
</symbol><symbol viewBox="0 0 33 36" id="undefined-C1706787474630">
<g clip-path="url(#clip0_11_118)">
<path d="M19 35.8C16.33 35.8 13.88 35.36 11.62 34.48C9.36999 33.6 7.41999 32.35 5.76999 30.73C4.11999 29.11 2.82999 27.22 1.88999 25.05C0.95999 22.88 0.48999 20.5 0.48999 17.9C0.48999 15.3 0.95999 12.92 1.88999 10.75C2.81999 8.58 4.11999 6.69 5.78999 5.07C7.45999 3.45 9.40999 2.2 11.67 1.32C13.92 0.44 16.38 0 19.05 0C21.72 0 24.24 0.46 26.52 1.38C28.8 2.3 30.75 3.65 32.35 5.45L29.1 8.6C27.77 7.2 26.27 6.16 24.6 5.48C22.93 4.8 21.15 4.45 19.25 4.45C17.35 4.45 15.46 4.78 13.77 5.45C12.09 6.12 10.63 7.05 9.38999 8.25C8.15999 9.45 7.19999 10.87 6.50999 12.52C5.82999 14.17 5.48999 15.96 5.48999 17.9C5.48999 19.84 5.82999 21.63 6.50999 23.28C7.18999 24.93 8.14999 26.36 9.38999 27.55C10.62 28.75 12.08 29.68 13.77 30.35C15.45 31.02 17.28 31.35 19.25 31.35C21.22 31.35 22.93 31.01 24.6 30.32C26.27 29.64 27.77 28.58 29.1 27.15L32.35 30.3C30.75 32.1 28.81 33.47 26.52 34.4C24.24 35.33 21.73 35.8 19 35.8Z" fill="black"></path>
</g>
<defs>
<clippath id="clip0_11_118">
<rect width="31.85" height="35.8" fill="white" transform="translate(0.5)"></rect>
</clippath>
</defs>
</symbol><symbol viewBox="0 0 35 35" id="undefined-D1706787474630">
<g clip-path="url(#clip0_11_121)">
<path d="M31.77 8.35C30.19 5.72 27.97 3.67 25.12 2.2C22.27 0.73 18.98 0 15.25 0H0.5V35H15.25C18.98 35 22.27 34.27 25.13 32.8C27.98 31.33 30.2 29.28 31.78 26.65C33.36 24.02 34.16 20.97 34.16 17.5C34.16 14.03 33.37 10.98 31.78 8.35H31.77ZM27.39 24.37C26.22 26.35 24.58 27.89 22.47 28.99C20.35 30.09 17.85 30.64 14.95 30.64H5.5V4.35H14.95C17.85 4.35 20.36 4.9 22.47 6C24.59 7.1 26.23 8.63 27.39 10.6C28.56 12.57 29.14 14.87 29.14 17.5C29.14 20.13 28.56 22.39 27.39 24.38V24.37Z" fill="black"></path>
</g>
<defs>
<clippath id="clip0_11_121">
<rect width="33.65" height="35" fill="white" transform="translate(0.5)"></rect>
</clippath>
</defs>
</symbol><symbol viewBox="0 0 26 35" id="undefined-E1706787474630">
<g clip-path="url(#clip0_11_127)">
<path d="M5.5 30.65V19.35H23.05V15.1H5.5V4.35H25.2V0H0.5V35H25.9V30.65H5.5Z" fill="black"></path>
</g>
<defs>
<clippath id="clip0_11_127">
<rect width="25.4" height="35" fill="white" transform="translate(0.5)"></rect>
</clippath>
</defs>
</symbol><symbol viewBox="0 0 26 35" id="undefined-F1706787474631">
<g clip-path="url(#clip0_11_112)">
<path d="M25.2 4.35V0H0.5V35H5.5V20.85H23.05V16.55H5.5V4.35H25.2Z" fill="black"></path>
</g>
<defs>
<clippath id="clip0_11_112">
<rect width="24.7" height="35" fill="white" transform="translate(0.5)"></rect>
</clippath>
</defs>
</symbol><symbol viewBox="0 0 33 36" id="undefined-G1706787474631">
<g clip-path="url(#clip0_11_124)">
<path d="M27.6 29.07C26.7 29.66 25.76 30.14 24.77 30.48C23.05 31.06 21.26 31.36 19.39 31.36C17.39 31.36 15.54 31.03 13.84 30.36C12.14 29.69 10.67 28.75 9.41999 27.53C8.16999 26.31 7.19999 24.88 6.51999 23.23C5.83999 21.58 5.49999 19.8 5.49999 17.9C5.49999 16 5.83999 14.17 6.51999 12.52C7.19999 10.87 8.16999 9.44001 9.41999 8.25001C10.67 7.05001 12.15 6.12001 13.87 5.45001C15.59 4.78001 17.44 4.45001 19.44 4.45001C21.44 4.45001 23.23 4.78001 24.92 5.43001C26.6 6.08001 28.16 7.11001 29.59 8.51001L32.69 5.41001C31.09 3.61001 29.14 2.26001 26.84 1.36001C24.54 0.46001 22.01 0.0100098 19.24 0.0100098C16.47 0.0100098 14.01 0.45001 11.74 1.33001C9.46999 2.21001 7.49999 3.46001 5.80999 5.08001C4.12999 6.70001 2.81999 8.59001 1.88999 10.76C0.95999 12.93 0.48999 15.31 0.48999 17.91C0.48999 20.51 0.95999 22.89 1.88999 25.06C2.81999 27.23 4.11999 29.12 5.78999 30.74C7.45999 32.36 9.41999 33.61 11.69 34.49C13.96 35.37 16.44 35.81 19.14 35.81C21.61 35.81 24 35.43 26.31 34.69C28.62 33.95 30.65 32.83 32.39 31.37V17.72H27.59V29.09L27.6 29.07Z" fill="black"></path>
</g>
<defs>
<clippath id="clip0_11_124">
<rect width="32.2" height="35.8" fill="white" transform="translate(0.5)"></rect>
</clippath>
</defs>
</symbol><symbol viewBox="0 0 31 35" id="undefined-H1706787474632">
<g clip-path="url(#clip0_11_115)">
<path d="M25.6 0V15.05H5.5V0H0.5V35H5.5V19.4H25.6V35H30.6V0H25.6Z" fill="black"></path>
</g>
<defs>
<clippath id="clip0_11_115">
<rect width="30.1" height="35" fill="white" transform="translate(0.5)"></rect>
</clippath>
</defs>
</symbol><symbol viewBox="0 0 6 35" id="undefined-I1706787474634">
<g clip-path="url(#clip0_11_133)">
<path d="M0.5 35V0H5.5V35H0.5Z" fill="black"></path>
</g>
<defs>
<clippath id="clip0_11_133">
<rect width="5" height="35" fill="white" transform="translate(0.5)"></rect>
</clippath>
</defs>
</symbol><symbol viewBox="0 0 22 36" id="undefined-J1706787474634">
<g clip-path="url(#clip0_11_145)">
<path d="M10.7 35.4C8.63 35.4 6.7 34.97 4.9 34.1C3.1 33.23 1.63 31.98 0.5 30.35L3.4 26.95C4.37 28.28 5.46 29.31 6.67 30.02C7.89 30.74 9.23 31.1 10.7 31.1C14.7 31.1 16.7 28.73 16.7 24V4.35H4.05V0H21.65V23.75C21.65 27.65 20.73 30.57 18.87 32.5C17.02 34.43 14.29 35.4 10.7 35.4Z" fill="black"></path>
</g>
<defs>
<clippath id="clip0_11_145">
<rect width="21.15" height="35.4" fill="white" transform="translate(0.5)"></rect>
</clippath>
</defs>
</symbol><symbol viewBox="0 0 32 35" id="undefined-K1706787474634">
<g clip-path="url(#clip0_11_151)">
<path d="M25.3 35H31.15L15.26 15.76L30.2 0H24.5L5.5 19.57V0H0.5V35H5.5V25.94L11.92 19.43L25.3 35Z" fill="black"></path>
</g>
<defs>
<clippath id="clip0_11_151">
<rect width="30.65" height="35" fill="white" transform="translate(0.5)"></rect>
</clippath>
</defs>
</symbol><symbol viewBox="0 0 25 35" id="undefined-L1706787474635">
<g clip-path="url(#clip0_11_142)">
<path d="M0.5 35V0H5.5V30.65H24.45V35H0.5Z" fill="black"></path>
</g>
<defs>
<clippath id="clip0_11_142">
<rect width="23.95" height="35" fill="white" transform="translate(0.5)"></rect>
</clippath>
</defs>
</symbol><symbol viewBox="0 0 38 35" id="undefined-M1706787474635">
<g clip-path="url(#clip0_11_148)">
<path d="M37.75 35L37.7 0H33.6L19.19 24.58L4.6 0H0.5V35H5.3V9.64L17.95 30.75H20.25L32.9 9.48L32.95 35H37.75Z" fill="black"></path>
</g>
<defs>
<clippath id="clip0_11_148">
<rect width="37.25" height="35" fill="white" transform="translate(0.5)"></rect>
</clippath>
</defs>
</symbol><symbol viewBox="0 0 31 35" id="undefined-N1706787474635">
<g clip-path="url(#clip0_11_136)">
<path d="M25.6 0V26.08L4.6 0H0.5V35H5.5V8.92L26.5 35H30.6V0H25.6Z" fill="black"></path>
</g>
<defs>
<clippath id="clip0_11_136">
<rect width="30.1" height="35" fill="white" transform="translate(0.5)"></rect>
</clippath>
</defs>
</symbol><symbol viewBox="0 0 38 36" id="undefined-O1706787474636">
<g clip-path="url(#clip0_11_163)">
<path d="M19.15 35.8C16.48 35.8 14.01 35.35 11.73 34.45C9.45001 33.55 7.47001 32.29 5.81001 30.68C4.14001 29.06 2.84001 27.17 1.91001 25.01C0.98001 22.84 0.51001 20.48 0.51001 17.91C0.51001 15.34 0.98001 12.98 1.91001 10.81C2.84001 8.64002 4.14001 6.75002 5.81001 5.14002C7.48001 3.52002 9.44001 2.26002 11.71 1.37002C13.98 0.47002 16.46 0.0200195 19.16 0.0200195C21.86 0.0200195 24.28 0.46002 26.54 1.34002C28.79 2.22002 30.76 3.47002 32.44 5.09002C34.12 6.71002 35.42 8.60002 36.34 10.77C37.26 12.94 37.72 15.32 37.72 17.92C37.72 20.52 37.26 22.9 36.34 25.07C35.42 27.24 34.12 29.13 32.44 30.75C30.76 32.37 28.79 33.62 26.54 34.5C24.29 35.38 21.83 35.82 19.16 35.82L19.15 35.8ZM19.15 31.35C21.08 31.35 22.88 31.02 24.53 30.35C26.18 29.68 27.61 28.74 28.83 27.52C30.05 26.3 31 24.88 31.68 23.25C32.36 21.62 32.7 19.83 32.7 17.9C32.7 15.97 32.36 14.18 31.68 12.55C31 10.92 30.05 9.49002 28.83 8.28002C27.61 7.06002 26.18 6.12002 24.53 5.45002C22.88 4.78002 21.09 4.45002 19.15 4.45002C17.21 4.45002 15.38 4.78002 13.73 5.45002C12.08 6.12002 10.64 7.06002 9.40001 8.28002C8.17001 9.50002 7.21001 10.92 6.52001 12.55C5.84001 14.18 5.50001 15.97 5.50001 17.9C5.50001 19.83 5.84001 21.62 6.52001 23.25C7.20001 24.88 8.16001 26.31 9.40001 27.52C10.63 28.74 12.07 29.68 13.73 30.35C15.38 31.02 17.19 31.35 19.15 31.35Z" fill="black"></path>
</g>
<defs>
<clippath id="clip0_11_163">
<rect width="37.2" height="35.8" fill="white" transform="translate(0.5)"></rect>
</clippath>
</defs>
</symbol><symbol viewBox="0 0 29 35" id="undefined-P1706787474636">
<g clip-path="url(#clip0_11_130)">
<path d="M27 5.65C25.83 3.82 24.17 2.42 22 1.45C19.83 0.48 17.22 0 14.15 0H0.5V35H5.5V24.4H14.15C17.22 24.4 19.83 23.91 22 22.92C24.17 21.94 25.83 20.54 27 18.72C28.17 16.9 28.75 14.73 28.75 12.2C28.75 9.67 28.17 7.48 27 5.65ZM21.28 18C19.63 19.37 17.2 20.05 14 20.05H5.5V4.35H14C17.2 4.35 19.62 5.03 21.28 6.4C22.93 7.77 23.75 9.7 23.75 12.2C23.75 14.7 22.92 16.63 21.28 18Z" fill="black"></path>
</g>
<defs>
<clippath id="clip0_11_130">
<rect width="28.25" height="35" fill="white" transform="translate(0.5)"></rect>
</clippath>
</defs>
</symbol><symbol viewBox="0 0 40 43" id="undefined-Q1706787474636">
<g clip-path="url(#clip0_11_157)">
<path d="M37.05 35.75C35.28 37.75 33.15 38.75 30.65 38.75C29.78 38.75 28.9 38.57 28 38.23C27.1 37.88 26.19 37.31 25.27 36.53C24.83 36.16 24.39 35.73 23.93 35.26C24.82 35.05 25.69 34.81 26.52 34.48C28.77 33.6 30.74 32.35 32.42 30.73C34.1 29.11 35.4 27.22 36.32 25.05C37.24 22.88 37.7 20.5 37.7 17.9C37.7 15.3 37.24 12.92 36.32 10.75C35.4 8.58 34.1 6.69 32.42 5.07C30.74 3.45 28.77 2.2 26.52 1.32C24.27 0.44 21.81 0 19.14 0C16.47 0 13.96 0.45 11.69 1.35C9.41999 2.25 7.45999 3.51 5.78999 5.12C4.11999 6.74 2.81999 8.63 1.88999 10.79C0.95999 12.96 0.48999 15.32 0.48999 17.89C0.48999 20.46 0.95999 22.82 1.88999 24.99C2.81999 27.16 4.11999 29.05 5.78999 30.66C7.45999 32.28 9.42999 33.54 11.71 34.43C13.62 35.18 15.66 35.6 17.84 35.72C18.87 36.79 19.84 37.72 20.74 38.5C21.87 39.48 22.97 40.28 24.04 40.9C25.11 41.52 26.17 41.97 27.24 42.25C28.31 42.53 29.42 42.67 30.59 42.67C34.19 42.67 37.12 41.3 39.39 38.57L37.04 35.72L37.05 35.75ZM9.39999 27.5C8.16999 26.27 7.20999 24.83 6.51999 23.2C5.83999 21.57 5.49999 19.8 5.49999 17.9C5.49999 16 5.83999 14.18 6.51999 12.55C7.19999 10.92 8.15999 9.49 9.39999 8.28C10.63 7.06 12.07 6.12 13.73 5.45C15.38 4.78 17.19 4.45 19.15 4.45C21.11 4.45 22.88 4.78 24.53 5.45C26.18 6.12 27.61 7.06 28.83 8.28C30.05 9.5 31 10.92 31.68 12.55C32.36 14.18 32.7 15.97 32.7 17.9C32.7 19.83 32.36 21.57 31.68 23.2C31 24.83 30.05 26.27 28.83 27.5C27.61 28.73 26.18 29.68 24.53 30.35C22.88 31.02 21.09 31.35 19.15 31.35C17.21 31.35 15.38 31.02 13.73 30.35C12.08 29.68 10.64 28.73 9.39999 27.5Z" fill="black"></path>
</g>
<defs>
<clippath id="clip0_11_157">
<rect width="38.9" height="42.7" fill="white" transform="translate(0.5)"></rect>
</clippath>
</defs>
</symbol><symbol viewBox="0 0 30 35" id="undefined-R1706787474637">
<g clip-path="url(#clip0_11_154)">
<path d="M29.35 35L21.03 23.26C21.36 23.14 21.69 23.04 22 22.9C24.17 21.93 25.83 20.54 27 18.73C28.17 16.91 28.75 14.74 28.75 12.21C28.75 9.68001 28.17 7.49001 27 5.66001C25.83 3.83001 24.17 2.43001 22 1.46001C19.83 0.49001 17.22 0.0100098 14.15 0.0100098H0.5V35.01H5.5V24.36H14.15C14.92 24.36 15.66 24.33 16.37 24.27L23.9 35.01H29.35V35ZM14 20.1H5.5V4.35001H14C17.2 4.35001 19.62 5.03001 21.28 6.40001C22.93 7.77001 23.75 9.70001 23.75 12.2C23.75 14.7 22.92 16.64 21.28 18.02C19.63 19.4 17.2 20.1 14 20.1Z" fill="black"></path>
</g>
<defs>
<clippath id="clip0_11_154">
<rect width="28.85" height="35" fill="white" transform="translate(0.5)"></rect>
</clippath>
</defs>
</symbol><symbol viewBox="0 0 28 36" id="undefined-S1706787474637">
<g clip-path="url(#clip0_11_178)">
<path d="M13.9 35.8C11.23 35.8 8.68 35.39 6.25 34.57C3.82 33.75 1.9 32.69 0.5 31.4L2.35 27.5C3.68 28.67 5.38 29.63 7.45 30.4C9.52 31.17 11.67 31.55 13.9 31.55C15.93 31.55 17.58 31.32 18.85 30.85C20.12 30.38 21.05 29.74 21.65 28.92C22.25 28.1 22.55 27.18 22.55 26.15C22.55 24.95 22.16 23.98 21.38 23.25C20.6 22.52 19.58 21.92 18.33 21.48C17.08 21.03 15.71 20.64 14.21 20.3C12.71 19.97 11.2 19.57 9.68 19.13C8.16 18.68 6.78 18.11 5.53 17.4C4.28 16.69 3.27 15.76 2.5 14.57C1.73 13.39 1.35 11.86 1.35 9.99999C1.35 8.13999 1.82 6.53999 2.77 5.01999C3.72 3.49999 5.19 2.28999 7.17 1.36999C9.15 0.44999 11.68 -0.0100098 14.75 -0.0100098C16.78 -0.0100098 18.8 0.25999 20.8 0.78999C22.8 1.31999 24.53 2.08999 26 3.08999L24.35 7.08999C22.85 6.08999 21.27 5.35999 19.6 4.90999C17.93 4.45999 16.32 4.23999 14.75 4.23999C12.78 4.23999 11.17 4.48999 9.9 4.98999C8.63 5.48999 7.71 6.15999 7.12 6.98999C6.54 7.81999 6.24 8.75999 6.24 9.78999C6.24 11.02 6.63 12.01 7.41 12.74C8.19 13.47 9.21 14.06 10.46 14.49C11.71 14.92 13.08 15.31 14.58 15.66C16.08 16.01 17.59 16.4 19.1 16.84C20.62 17.27 22 17.84 23.25 18.54C24.5 19.24 25.51 20.17 26.27 21.34C27.04 22.51 27.42 24.01 27.42 25.84C27.42 27.67 26.94 29.25 25.97 30.76C25 32.28 23.51 33.49 21.5 34.41C19.48 35.33 16.94 35.79 13.88 35.79L13.9 35.8Z" fill="black"></path>
</g>
<defs>
<clippath id="clip0_11_178">
<rect width="26.95" height="35.8" fill="white" transform="translate(0.5)"></rect>
</clippath>
</defs>
</symbol><symbol viewBox="0 0 30 35" id="undefined-T1706787474637">
<g clip-path="url(#clip0_11_160)">
<path d="M12.5 35V4.35H0.5V0H29.45V4.35H17.45V35H12.5Z" fill="black"></path>
</g>
<defs>
<clippath id="clip0_11_160">
<rect width="28.95" height="35" fill="white" transform="translate(0.5)"></rect>
</clippath>
</defs>
</symbol><symbol viewBox="0 0 31 36" id="undefined-U1706787474638">
<g clip-path="url(#clip0_11_175)">
<path d="M25.25 0V19.7C25.25 23.6 24.39 26.45 22.67 28.25C20.95 30.05 18.51 30.95 15.34 30.95C12.17 30.95 9.78 30.05 8.07 28.25C6.35 26.45 5.49 23.6 5.49 19.7V0H0.5V19.9C0.5 24.97 1.82 28.82 4.45 31.45C7.08 34.08 10.7 35.4 15.3 35.4C19.9 35.4 23.56 34.08 26.18 31.45C28.8 28.82 30.1 24.97 30.1 19.9V0H25.25Z" fill="black"></path>
</g>
<defs>
<clippath id="clip0_11_175">
<rect width="29.6" height="35.4" fill="white" transform="translate(0.5)"></rect>
</clippath>
</defs>
</symbol><symbol viewBox="0 0 37 35" id="undefined-V1706787474638">
<g clip-path="url(#clip0_11_166)">
<path d="M31.2 0L18.51 28.77L5.9 0H0.5L15.9 35H20.85L36.2 0H31.2Z" fill="black"></path>
</g>
<defs>
<clippath id="clip0_11_166">
<rect width="35.7" height="35" fill="white" transform="translate(0.5)"></rect>
</clippath>
</defs>
</symbol><symbol viewBox="0 0 54 35" id="undefined-W1706787474638">
<g clip-path="url(#clip0_11_169)">
<path d="M48.85 0L39.2 28.6L29.55 0H24.95L15.12 28.47L5.65 0H0.5L12.2 35H17.55L27.12 7.03L36.65 35H41.9L53.6 0H48.85Z" fill="black"></path>
</g>
<defs>
<clippath id="clip0_11_169">
<rect width="53.1" height="35" fill="white" transform="translate(0.5)"></rect>
</clippath>
</defs>
</symbol><symbol viewBox="0 0 33 35" id="undefined-X1706787474638">
<g clip-path="url(#clip0_11_172)">
<path d="M32.85 35L19.61 16.9L31.95 0H26.5L16.79 13.43L7 0H1.3L13.65 17.06L0.5 35H6.25L16.61 20.57L27.1 35H32.85Z" fill="black"></path>
</g>
<defs>
<clippath id="clip0_11_172">
<rect width="32.35" height="35" fill="white" transform="translate(0.5)"></rect>
</clippath>
</defs>
</symbol><symbol viewBox="0 0 34 35" id="undefined-Y1706787474638">
<g clip-path="url(#clip0_11_184)">
<path d="M33.25 0H28.3L17.05 18.47L5.85 0H0.5L14.4 22.81V35H19.35V22.89L33.25 0Z" fill="black"></path>
</g>
<defs>
<clippath id="clip0_11_184">
<rect width="32.75" height="35" fill="white" transform="translate(0.5)"></rect>
</clippath>
</defs>
</symbol><symbol viewBox="0 0 30 35" id="undefined-Z1706787474638">
<g clip-path="url(#clip0_11_181)">
<path d="M7.22 30.65L29.1 3.4V0H0.85V4.35H22.48L0.5 31.6V35H29.75V30.65H7.22Z" fill="black"></path>
</g>
<defs>
<clippath id="clip0_11_181">
<rect width="29.25" height="35" fill="white" transform="translate(0.5)"></rect>
</clippath>
</defs>
</symbol><symbol viewBox="0 0 24 27" id="undefined-a1706787474639">
<g clip-path="url(#clip0_10_52)">
<path d="M20.6 2.6C18.6 0.8 15.8 0 12.2 0C10.1 0 8.1 0.3 6.2 0.9C4.3 1.5 2.6 2.3 1.3 3.4L3.3 7C4.3 6.1 5.6 5.4 7.1 4.9C8.6 4.4 10.1 4.1 11.7 4.1C14.1 4.1 15.8 4.7 17 5.8C18.2 6.9 18.8 8.5 18.8 10.5V11.5H11.2C8.6 11.5 6.5 11.9 4.9 12.5C3.4 13.2 2.2 14.1 1.5 15.3C0.8 16.5 0.5 17.8 0.5 19.2C0.5 20.7 0.9 22 1.7 23.2C2.5 24.5 3.6 25.4 5.1 26C6.6 26.7 8.3 27 10.3 27C12.7 27 14.8 26.5 16.4 25.6C17.5 25 18.4 24.1 19 23.2V26.7H23.5V10.7C23.5 7.1 22.6 4.4 20.6 2.6ZM15.8 22.1C14.4 22.9 12.9 23.3 11.1 23.3C9.3 23.3 7.8 22.9 6.8 22.1C5.8 21.3 5.3 20.3 5.3 19C5.3 17.9 5.7 16.9 6.5 16.1C7.3 15.3 9 14.9 11.4 14.9H18.8V18.6C18.1 20.2 17.2 21.4 15.8 22.1Z" fill="black"></path>
</g>
<defs>
<clippath id="clip0_10_52">
<rect width="23" height="27" fill="white" transform="translate(0.5)"></rect>
</clippath>
</defs>
</symbol><symbol viewBox="0 0 28 38" id="undefined-b1706787474639">
<g clip-path="url(#clip0_10_50)">
<path d="M26.2 16.8C25 14.8 23.4 13.2 21.4 12.1C19.4 11 17.1 10.4 14.5 10.4C12.3 10.4 10.3 10.9 8.5 11.9C7.2 12.6 6.2 13.5 5.3 14.7V0H0.5V37.1H5.1V32.9C6 34.1 7.1 35.1 8.4 35.9C10.2 36.9 12.3 37.4 14.5 37.4C17.1 37.4 19.4 36.8 21.4 35.7C23.4 34.6 25 33 26.2 30.9C27.4 28.9 28 26.5 28 23.8C28 21.1 27.4 18.8 26.2 16.8ZM21.9 28.8C21.1 30.2 20 31.3 18.7 32.1C17.3 32.9 15.8 33.2 14.1 33.2C12.4 33.2 10.9 32.8 9.6 32.1C8.3 31.3 7.2 30.2 6.4 28.8C5.6 27.4 5.2 25.7 5.2 23.9C5.2 22 5.6 20.4 6.4 19C7.2 17.6 8.3 16.5 9.6 15.8C11 15 12.5 14.7 14.1 14.7C15.8 14.7 17.3 15.1 18.7 15.8C20.1 16.6 21.1 17.6 21.9 19C22.7 20.4 23.1 22 23.1 23.9C23.1 25.7 22.7 27.4 21.9 28.8Z" fill="black"></path>
</g>
<defs>
<clippath id="clip0_10_50">
<rect width="27.5" height="37.4" fill="white" transform="translate(0.5)"></rect>
</clippath>
</defs>
</symbol><symbol viewBox="0 0 26 27" id="undefined-c1706787474639">
<g clip-path="url(#clip0_10_48)">
<path d="M14.5 27C11.8 27 9.4 26.4 7.3 25.2C5.2 24 3.5 22.4 2.3 20.4C1.1 18.4 0.5 16 0.5 13.4C0.5 10.8 1.1 8.4 2.3 6.4C3.5 4.4 5.2 2.8 7.3 1.6C9.4 0.6 11.8 0 14.5 0C16.9 0 19 0.5 20.9 1.4C22.8 2.4 24.2 3.8 25.3 5.6L21.6 8C20.7 6.7 19.7 5.7 18.4 5.1C17.2 4.5 15.8 4.2 14.4 4.2C12.7 4.2 11.1 4.6 9.8 5.3C8.4 6.1 7.4 7.2 6.5 8.6C5.7 10 5.3 11.6 5.3 13.5C5.3 15.4 5.7 17 6.5 18.5C7.3 19.9 8.4 21 9.7 21.7C11.1 22.5 12.6 22.8 14.3 22.8C15.7 22.8 17.1 22.5 18.3 21.9C19.5 21.3 20.6 20.3 21.5 19L25.1 21.3C24.1 23.1 22.6 24.5 20.7 25.5C19 26.6 16.9 27 14.5 27Z" fill="black"></path>
</g>
<defs>
<clippath id="clip0_10_48">
<rect width="24.8" height="27" fill="white" transform="translate(0.5)"></rect>
</clippath>
</defs>
</symbol><symbol viewBox="0 0 28 38" id="undefined-d1706787474639">
<g clip-path="url(#clip0_10_46)">
<path d="M23.1 0V14.6C22.2 13.4 21.1 12.5 19.9 11.8C18.1 10.8 16.1 10.3 13.9 10.3C11.3 10.3 9.00002 10.9 7.00002 12C5.00002 13.1 3.40002 14.7 2.20002 16.7C1.00002 18.7 0.400024 21.1 0.400024 23.8C0.400024 26.5 1.00002 28.9 2.20002 30.9C3.40002 32.9 5.00002 34.5 7.00002 35.7C9.00002 36.8 11.3 37.4 13.9 37.4C16.2 37.4 18.3 36.9 20 35.9C21.3 35.2 22.4 34.2 23.3 32.9V37.1H27.9V0H23.1ZM22 28.8C21.2 30.2 20.1 31.3 18.8 32.1C17.5 32.9 15.9 33.2 14.3 33.2C12.6 33.2 11.1 32.8 9.80002 32.1C8.50003 31.3 7.40002 30.2 6.60002 28.8C5.80002 27.4 5.40002 25.7 5.40002 23.9C5.40002 22 5.80002 20.4 6.60002 19C7.40002 17.6 8.50003 16.5 9.80002 15.8C11.1 15 12.7 14.7 14.3 14.7C16 14.7 17.5 15.1 18.8 15.8C20.2 16.6 21.2 17.6 22 19C22.8 20.4 23.2 22 23.2 23.9C23.2 25.7 22.8 27.4 22 28.8Z" fill="black"></path>
</g>
<defs>
<clippath id="clip0_10_46">
<rect width="27.4" height="37.4" fill="white" transform="translate(0.5)"></rect>
</clippath>
</defs>
</symbol><symbol viewBox="0 0 27 27" id="undefined-e1706787474639">
<g clip-path="url(#clip0_10_44)">
<path d="M25.2 6.5C24.1 4.4 22.5 2.9 20.6 1.7C18.6 0.6 16.4 0 13.8 0C11.3 0 9 0.6 7 1.7C5 2.8 3.4 4.4 2.2 6.5C1 8.5 0.5 10.9 0.5 13.5C0.5 16.1 1.1 18.5 2.3 20.5C3.5 22.5 5.2 24.1 7.3 25.3C9.4 26.5 11.9 27.1 14.8 27.1C17 27.1 19 26.7 20.8 26C22.6 25.3 24.1 24.2 25.3 22.8L22.5 19.6C21.5 20.7 20.4 21.5 19.1 22C17.8 22.5 16.4 22.8 14.8 22.8C12.9 22.8 11.2 22.4 9.8 21.7C8.3 20.9 7.2 19.9 6.4 18.5C5.8 17.5 5.4 16.4 5.3 15.1H26.8C26.8 14.9 26.9 14.6 26.9 14.3C26.9 14 26.9 13.8 26.9 13.6C26.9 10.9 26.3 8.5 25.2 6.5ZM9.4 5.2C10.6 4.4 12.1 4 13.8 4C15.5 4 17 4.4 18.3 5.1C19.6 5.9 20.6 6.9 21.3 8.2C21.9 9.2 22.2 10.3 22.3 11.6H5.3C5.4 10.4 5.8 9.3 6.3 8.3C7 7 8 5.9 9.4 5.2Z" fill="black"></path>
</g>
<defs>
<clippath id="clip0_10_44">
<rect width="26.4" height="27" fill="white" transform="translate(0.5)"></rect>
</clippath>
</defs>
</symbol><symbol viewBox="0 0 20 38" id="undefined-f1706787474639">
<g clip-path="url(#clip0_10_42)">
<path d="M10.8 5.1C11.5 4.3 12.6 3.9 14 3.9C14.7 3.9 15.4 4 16 4.2C16.6 4.4 17.2 4.7 17.7 5.1L19.2 1.5C18.5 1 17.7 0.6 16.7 0.4C15.8 0.2 14.8 0 13.7 0C10.9 0 8.7 0.8 7.2 2.3C5.8 3.9 5 5.9 5 8.5V10.9H0.5V14.9H5V37.4H9.8V14.9H17.4V10.9H9.7V8.6C9.7 7.1 10.1 5.9 10.8 5.1Z" fill="black"></path>
</g>
<defs>
<clippath id="clip0_10_42">
<rect width="18.7" height="37.4" fill="white" transform="translate(0.5)"></rect>
</clippath>
</defs>
</symbol><symbol viewBox="0 0 29 37" id="undefined-g1706787474639">
<g clip-path="url(#clip0_10_40)">
<path d="M23.7 0.2V4.3C22.7 3 21.5 2.1 20.1 1.4C18.3 0.5 16.2 0 14 0C11.4 0 9.1 0.5 7.1 1.6C5.1 2.7 3.5 4.2 2.3 6.1C1.1 8 0.5 10.2 0.5 12.8C0.5 15.3 1.1 17.6 2.3 19.5C3.5 21.4 5.1 22.9 7.1 24C9.1 25.1 11.4 25.6 14 25.6C16.3 25.6 18.3 25.1 20.2 24.2C21.5 23.5 22.6 22.6 23.5 21.5V23.6C23.5 26.6 22.8 28.8 21.3 30.3C19.8 31.8 17.5 32.5 14.4 32.5C12.4 32.5 10.6 32.2 8.7 31.6C6.9 31 5.4 30.1 4.2 29.1L1.9 32.8C3.3 34.1 5.2 35 7.5 35.7C9.8 36.4 12.1 36.7 14.6 36.7C19.1 36.7 22.5 35.6 24.8 33.4C27.1 31.2 28.3 27.8 28.3 23.1V0.2H23.7ZM22.4 17.3C21.6 18.6 20.5 19.6 19.2 20.4C17.8 21.1 16.3 21.5 14.5 21.5C12.7 21.5 11.2 21.1 9.8 20.4C8.4 19.7 7.3 18.6 6.6 17.3C5.8 16 5.4 14.5 5.4 12.8C5.4 11.1 5.8 9.6 6.6 8.3C7.3 7 8.4 6 9.8 5.3C11.2 4.6 12.8 4.2 14.5 4.2C16.2 4.2 17.8 4.6 19.2 5.3C20.6 6 21.6 7 22.4 8.3C23.2 9.6 23.6 11.1 23.6 12.8C23.6 14.5 23.2 16 22.4 17.3Z" fill="black"></path>
</g>
<defs>
<clippath id="clip0_10_40">
<rect width="27.8" height="36.8" fill="white" transform="translate(0.5)"></rect>
</clippath>
</defs>
</symbol><symbol viewBox="0 0 26 38" id="undefined-h1706787474639">
<g clip-path="url(#clip0_10_38)">
<path d="M24.3 15.4C23.4 13.7 22.1 12.4 20.4 11.6C18.8 10.8 16.8 10.4 14.7 10.4C12.3 10.4 10.2 10.9 8.4 11.9C7.2 12.6 6.1 13.4 5.3 14.5V0H0.5V37.1H5.3V23.5C5.3 21.6 5.6 19.9 6.3 18.6C7 17.3 8 16.3 9.2 15.6C10.5 14.9 12 14.6 13.7 14.6C16 14.6 17.7 15.3 19 16.6C20.3 17.9 20.9 19.8 20.9 22.4V37.1H25.7V21.9C25.7 19.2 25.2 17.1 24.3 15.4Z" fill="black"></path>
</g>
<defs>
<clippath id="clip0_10_38">
<rect width="25.2" height="37.1" fill="white" transform="translate(0.5)"></rect>
</clippath>
</defs>
</symbol><symbol viewBox="0 0 7 38" id="undefined-i1706787474639">
<g clip-path="url(#clip0_10_34)">
<path d="M3.7 6.2C4.7 6.2 5.5 5.9 6 5.3C6.7 4.7 7 4 7 3.1C7 2.2 6.7 1.5 6.1 0.9C5.5 0.3 4.7 0 3.7 0C2.8 0 2 0.3 1.4 0.9C0.8 1.5 0.5 2.2 0.5 3.1C0.5 4 0.8 4.8 1.4 5.4C2 6 2.8 6.2 3.7 6.2Z" fill="black"></path>
<path d="M6.10005 11.3999H1.30005V37.8999H6.10005V11.3999Z" fill="black"></path>
</g>
<defs>
<clippath id="clip0_10_34">
<rect width="6.5" height="37.9" fill="white" transform="translate(0.5)"></rect>
</clippath>
</defs>
</symbol><symbol viewBox="0 0 16 48" id="undefined-j1706787474639">
<g clip-path="url(#clip0_10_32)">
<path d="M6.3 47.9C5.2 47.9 4.1 47.8 3.1 47.5C2.1 47.2 1.2 46.8 0.5 46.3L2 42.6C3 43.4 4.3 43.8 5.9 43.8C7.2 43.8 8.1 43.4 8.8 42.6C9.5 41.8 9.8 40.7 9.8 39.1V11.4H14.6V39.1C14.6 41.8 13.9 43.9 12.4 45.5C11.1 47.1 9 47.9 6.3 47.9ZM12.3 6.2C11.4 6.2 10.6 5.9 10 5.3C9.4 4.8 9 4 9 3.1C9 2.2 9.3 1.5 9.9 0.9C10.6 0.3 11.4 0 12.3 0C13.2 0 14 0.3 14.6 0.9C15.2 1.5 15.5 2.2 15.5 3.1C15.5 4 15.2 4.8 14.6 5.4C14 5.9 13.3 6.2 12.3 6.2Z" fill="black"></path>
</g>
<defs>
<clippath id="clip0_10_32">
<rect width="15" height="47.9" fill="white" transform="translate(0.5)"></rect>
</clippath>
</defs>
</symbol><symbol viewBox="0 0 27 38" id="undefined-k1706787474639">
<g clip-path="url(#clip0_10_30)">
<path d="M20.7 37.1H26.7L14.4 21.6L25.5 10.6H19.7L5.3 23.8V0H0.5V37.1H5.3V29.9L10.8 24.7L20.7 37.1Z" fill="black"></path>
</g>
<defs>
<clippath id="clip0_10_30">
<rect width="26.2" height="37.1" fill="white" transform="translate(0.5)"></rect>
</clippath>
</defs>
</symbol><symbol viewBox="0 0 6 38" id="undefined-l1706787474639">
<g clip-path="url(#clip0_10_28)">
<path d="M0.5 37.1V0H5.3V37.1H0.5Z" fill="black"></path>
</g>
<defs>
<clippath id="clip0_10_28">
<rect width="4.8" height="37.1" fill="white" transform="translate(0.5)"></rect>
</clippath>
</defs>
</symbol><symbol viewBox="0 0 45 27" id="undefined-m1706787474639">
<g clip-path="url(#clip0_10_54)">
<path d="M43.1 5C42.2 3.3 40.9 2 39.3 1.2C37.7 0.4 35.8 0 33.7 0C31 0 28.7 0.6 26.7 1.9C25.4 2.7 24.3 3.8 23.5 4.9C22.9 3.7 22 2.6 20.8 1.9C19 0.7 16.8 0 14.3 0C12 0 10 0.5 8.3 1.5C6.9 2.2 5.9 3.1 5.1 4.2V0.2H0.5V26.7H5.3V13.1C5.3 11.2 5.6 9.5 6.3 8.2C7 6.9 7.9 5.9 9.1 5.2C10.3 4.5 11.7 4.2 13.2 4.2C15.4 4.2 17.1 4.9 18.3 6.2C19.5 7.5 20.1 9.4 20.1 12V26.7H24.9V13.1C24.9 11.2 25.2 9.5 25.9 8.2C26.5 7 27.5 6 28.7 5.3C29.9 4.6 31.3 4.3 32.9 4.3C35.1 4.3 36.7 5 37.9 6.3C39.1 7.6 39.7 9.5 39.7 12.1V26.8H44.5V11.5C44.5 8.9 44 6.8 43.1 5Z" fill="black"></path>
</g>
<defs>
<clippath id="clip0_10_54">
<rect width="44" height="26.8" fill="white" transform="translate(0.5)"></rect>
</clippath>
</defs>
</symbol><symbol viewBox="0 0 26 27" id="undefined-n1706787474640">
<g clip-path="url(#clip0_10_26)">
<path d="M24.3 5C23.4 3.3 22.1 2 20.4 1.2C18.7 0.4 16.8 0 14.7 0C12.3 0 10.2 0.5 8.4 1.5C7 2.2 5.9 3.1 5.1 4.3V0.3H0.5V26.8H5.3V13.1C5.3 11.2 5.6 9.5 6.3 8.2C7 7 8 6 9.3 5.3C10.6 4.6 12.1 4.3 13.8 4.3C16.1 4.3 17.8 5 19.1 6.3C20.4 7.6 21 9.5 21 12.1V26.8H25.8V11.5C25.7 8.9 25.2 6.8 24.3 5Z" fill="black"></path>
</g>
<defs>
<clippath id="clip0_10_26">
<rect width="25.2" height="26.8" fill="white" transform="translate(0.5)"></rect>
</clippath>
</defs>
</symbol><symbol viewBox="0 0 29 27" id="undefined-o1706787474640">
<g clip-path="url(#clip0_10_24)">
<path d="M14.3 27C11.6 27 9.3 26.4 7.2 25.2C5.1 24 3.5 22.4 2.3 20.4C1.1 18.3 0.5 16 0.5 13.4C0.5 10.8 1.1 8.4 2.3 6.4C3.5 4.4 5.1 2.8 7.2 1.6C9.3 0.6 11.6 0 14.3 0C16.9 0 19.3 0.6 21.4 1.7C23.5 2.8 25.1 4.4 26.3 6.5C27.5 8.5 28.1 10.9 28.1 13.5C28.1 16.1 27.5 18.5 26.3 20.5C25.1 22.5 23.5 24.1 21.4 25.3C19.3 26.5 16.9 27 14.3 27ZM14.3 22.9C16 22.9 17.5 22.5 18.9 21.8C20.3 21 21.3 19.9 22.1 18.5C22.9 17.1 23.2 15.4 23.2 13.6C23.2 11.7 22.8 10.1 22.1 8.7C21.3 7.3 20.3 6.2 18.9 5.5C17.6 4.7 16 4.4 14.3 4.4C12.6 4.4 11.1 4.8 9.7 5.5C8.4 6.1 7.4 7.2 6.6 8.6C5.8 10 5.4 11.6 5.4 13.5C5.4 15.4 5.8 17 6.6 18.4C7.4 19.8 8.5 20.9 9.8 21.7C11.1 22.5 12.6 22.9 14.3 22.9Z" fill="black"></path>
</g>
<defs>
<clippath id="clip0_10_24">
<rect width="27.6" height="27" fill="white" transform="translate(0.5)"></rect>
</clippath>
</defs>
</symbol><symbol viewBox="0 0 28 37" id="undefined-p1706787474640">
<g clip-path="url(#clip0_10_22)">
<path d="M26.2 6.4C25 4.4 23.4 2.8 21.4 1.7C19.5 0.6 17.2 0 14.5 0C12.2 0 10.2 0.5 8.4 1.5C7.1 2.2 6 3.2 5.1 4.5V0.2H0.5V36.4H5.3V22.7C6.2 23.9 7.3 24.8 8.5 25.5C10.3 26.5 12.3 27 14.5 27C17.1 27 19.4 26.4 21.4 25.3C23.4 24.2 25 22.6 26.2 20.5C27.4 18.5 28 16.1 28 13.4C28 10.7 27.4 8.4 26.2 6.4ZM21.9 18.4C21.1 19.8 20.1 20.9 18.7 21.7C17.3 22.5 15.8 22.8 14.1 22.8C12.4 22.8 10.9 22.4 9.6 21.7C8.3 20.9 7.2 19.8 6.4 18.4C5.6 17 5.2 15.3 5.2 13.5C5.2 11.6 5.6 10 6.4 8.6C7.2 7.2 8.3 6.1 9.6 5.4C11 4.6 12.5 4.3 14.1 4.3C15.8 4.3 17.3 4.7 18.7 5.4C20 6.2 21.1 7.2 21.9 8.6C22.7 10 23.1 11.6 23.1 13.5C23.1 15.4 22.7 17 21.9 18.4Z" fill="black"></path>
</g>
<defs>
<clippath id="clip0_10_22">
<rect width="27.5" height="36.5" fill="white" transform="translate(0.5)"></rect>
</clippath>
</defs>
</symbol><symbol viewBox="0 0 28 37" id="undefined-q1706787474640">
<g clip-path="url(#clip0_10_2)">
<path d="M23.4 0.199902V4.3999C22.5 3.1999 21.4 2.1999 20.1 1.3999C18.3 0.399902 16.2 -0.100098 13.9 -0.100098C11.3 -0.100098 9 0.499902 7 1.5999C5 2.6999 3.4 4.2999 2.2 6.2999C1.1 8.3999 0.5 10.7999 0.5 13.4999C0.5 16.1999 1.1 18.5999 2.3 20.5999C3.5 22.5999 5.1 24.1999 7.1 25.3999C9.1 26.4999 11.4 27.0999 14 27.0999C16.2 27.0999 18.2 26.5999 20 25.5999C21.2 24.8999 22.3 23.8999 23.2 22.7999V36.4999H28V0.199902H23.4ZM22 18.3999C21.2 19.7999 20.2 20.8999 18.8 21.6999C17.5 22.4999 15.9 22.7999 14.3 22.7999C12.6 22.7999 11.1 22.3999 9.7 21.6999C8.4 20.8999 7.3 19.7999 6.5 18.3999C5.7 16.9999 5.3 15.2999 5.3 13.4999C5.3 11.5999 5.7 9.9999 6.5 8.5999C7.3 7.1999 8.4 6.0999 9.7 5.3999C11 4.5999 12.6 4.2999 14.3 4.2999C16 4.2999 17.5 4.6999 18.8 5.3999C20.2 6.1999 21.2 7.1999 22 8.5999C22.8 9.9999 23.2 11.5999 23.2 13.4999C23.2 15.3999 22.8 16.9999 22 18.3999Z" fill="black"></path>
</g>
<defs>
<clippath id="clip0_10_2">
<rect width="27.5" height="36.5" fill="white" transform="translate(0.5)"></rect>
</clippath>
</defs>
</symbol><symbol viewBox="0 0 15 27" id="undefined-r1706787474640">
<g clip-path="url(#clip0_10_4)">
<path d="M8.4 1.5C6.9 2.2 5.8 3.4 5.1 4.7V0.2H0.5V26.7H5.3V13.5C5.3 10.6 6.1 8.4 7.5 6.9C9 5.4 11 4.6 13.6 4.6C13.8 4.6 13.9 4.6 14.1 4.6C14.3 4.6 14.5 4.6 14.7 4.6V0C12.2 0 10.1 0.5 8.4 1.5Z" fill="black"></path>
</g>
<defs>
<clippath id="clip0_10_4">
<rect width="14.2" height="26.8" fill="white" transform="translate(0.5)"></rect>
</clippath>
</defs>
</symbol><symbol viewBox="0 0 23 27" id="undefined-s1706787474640">
<g clip-path="url(#clip0_10_6)">
<path d="M11.5 27C9.3 27 7.2 26.7 5.2 26.1C3.2 25.5 1.7 24.8 0.5 23.9L2.5 20.1C3.6 20.9 5 21.5 6.7 22.1C8.4 22.6 10.1 22.9 11.8 22.9C14 22.9 15.6 22.6 16.6 22C17.6 21.4 18.1 20.5 18.1 19.3C18.1 18.5 17.8 17.8 17.2 17.4C16.6 16.9 15.8 16.6 14.8 16.3C13.8 16.1 12.7 15.9 11.5 15.7C10.3 15.5 9.1 15.3 7.9 15C6.7 14.7 5.6 14.3 4.6 13.8C3.6 13.3 2.8 12.6 2.2 11.7C1.6 10.7 1.3 9.5 1.3 8C1.3 6.4 1.8 5 2.7 3.8C3.6 2.5 4.9 1.6 6.5 1C8.2 0.4 10.1 0 12.4 0C14.1 0 15.9 0.2 17.7 0.6C19.5 1 20.9 1.6 22.1 2.4L20.1 6.2C18.9 5.4 17.6 4.8 16.3 4.5C15 4.2 13.7 4.1 12.4 4.1C10.3 4.1 8.7 4.4 7.7 5.1C6.7 5.8 6.2 6.7 6.2 7.7C6.2 8.6 6.5 9.3 7.1 9.8C7.7 10.3 8.5 10.7 9.5 10.9C10.5 11.2 11.6 11.4 12.8 11.6C14 11.8 15.2 12 16.4 12.3C17.6 12.6 18.7 13 19.7 13.5C20.7 14 21.5 14.7 22.1 15.6C22.7 16.5 23 17.7 23 19.2C23 20.8 22.5 22.2 21.6 23.3C20.7 24.5 19.4 25.4 17.6 26C15.8 26.7 13.8 27 11.5 27Z" fill="black"></path>
</g>
<defs>
<clippath id="clip0_10_6">
<rect width="22.4" height="27" fill="white" transform="translate(0.5)"></rect>
</clippath>
</defs>
</symbol><symbol viewBox="0 0 20 33" id="undefined-t1706787474640">
<g clip-path="url(#clip0_10_8)">
<path d="M17.7 27.3C16.7 28.1 15.5 28.5 13.9 28.5C12.6 28.5 11.5 28.1 10.8 27.4C10.1 26.6 9.7 25.5 9.7 24.1V9.8H17.3V5.8H9.8V0H5V5.8H0.5V9.8H5V24.3C5 27 5.7 29 7.2 30.4C8.7 31.8 10.7 32.5 13.4 32.5C14.5 32.5 15.6 32.4 16.6 32.1C17.6 31.8 18.5 31.3 19.2 30.7L17.7 27.3Z" fill="black"></path>
</g>
<defs>
<clippath id="clip0_10_8">
<rect width="18.7" height="32.6" fill="white" transform="translate(0.5)"></rect>
</clippath>
</defs>
</symbol><symbol viewBox="0 0 26 27" id="undefined-u1706787474640">
<g clip-path="url(#clip0_10_10)">
<path d="M20.7 0V13.7C20.7 15.6 20.4 17.2 19.7 18.5C19 19.8 18.1 20.8 16.8 21.5C15.6 22.2 14.1 22.5 12.5 22.5C10.2 22.5 8.5 21.9 7.2 20.5C6 19.2 5.3 17.3 5.3 14.7V0H0.5V15.2C0.5 17.8 1 20 1.9 21.7C2.9 23.4 4.2 24.7 5.9 25.5C7.6 26.3 9.6 26.7 11.9 26.7C14.1 26.7 16 26.2 17.7 25.3C19 24.6 20 23.6 20.9 22.5V26.5H25.5V0H20.7Z" fill="black"></path>
</g>
<defs>
<clippath id="clip0_10_10">
<rect width="25" height="26.8" fill="white" transform="translate(0.5)"></rect>
</clippath>
</defs>
</symbol><symbol viewBox="0 0 29 27" id="undefined-v1706787474640">
<g clip-path="url(#clip0_10_14)">
<path d="M23.9 0L14.6 21.2L5.5 0H0.5L12.1 26.5H17L28.6 0H23.9Z" fill="black"></path>
</g>
<defs>
<clippath id="clip0_10_14">
<rect width="28.1" height="26.5" fill="white" transform="translate(0.5)"></rect>
</clippath>
</defs>
</symbol><symbol viewBox="0 0 45 27" id="undefined-w1706787474640">
<g clip-path="url(#clip0_10_12)">
<path d="M39.5 0L31.7 21.2L23.8 0H19.7L11.7 21.1L4 0H-0.5L9.4 26.5H14L21.7 6.4L29.4 26.5H34L43.9 0H39.5Z" fill="black"></path>
</g>
<defs>
<clippath id="clip0_10_12">
<rect width="44.4" height="26.5" fill="white" transform="translate(0.5)"></rect>
</clippath>
</defs>
</symbol><symbol viewBox="0 0 27 27" id="undefined-x1706787474640">
<g clip-path="url(#clip0_10_16)">
<path d="M26.7 26.5L16.2 12.9L26.1 0H20.9L13.6 9.6L6.3 0H1L10.9 13L0.5 26.5H5.8L13.6 16.3L21.3 26.5H26.7Z" fill="black"></path>
</g>
<defs>
<clippath id="clip0_10_16">
<rect width="26.2" height="26.5" fill="white" transform="translate(0.5)"></rect>
</clippath>
</defs>
</symbol><symbol viewBox="0 0 30 37" id="undefined-y1706787474641">
<g clip-path="url(#clip0_10_18)">
<path d="M24.9 0L15.7 21.2L6.5 0H1.5L13.2 26.4L12.4 28.3C11.7 29.8 11 30.9 10.2 31.5C9.4 32.1 8.5 32.4 7.3 32.4C6.4 32.4 5.5 32.2 4.8 31.9C4 31.6 3.3 31.1 2.6 30.5L0.5 34C1.4 34.8 2.4 35.4 3.6 35.8C4.8 36.2 6 36.4 7.3 36.4C8.7 36.4 9.9 36.2 11.1 35.7C12.2 35.2 13.3 34.5 14.2 33.4C15.2 32.3 16 30.9 16.8 29L29.6 0H24.9Z" fill="black"></path>
</g>
<defs>
<clippath id="clip0_10_18">
<rect width="29.1" height="36.5" fill="white" transform="translate(0.5)"></rect>
</clippath>
</defs>
</symbol><symbol viewBox="0 0 23 27" id="undefined-z1706787474641">
<g clip-path="url(#clip0_10_20)">
<path d="M6.6 22.5L22.3 3.1V0H0.8V4H16.2L0.5 23.4V26.5H22.7V22.5H6.6Z" fill="black"></path>
</g>
<defs>
<clippath id="clip0_10_20">
<rect width="22.2" height="26.5" fill="white" transform="translate(0.5)"></rect>
</clippath>
</defs>
</symbol></svg>