<svg width="31" height="35" viewBox="0 0 31 35" fill="none" xmlns="http://www.w3.org/2000/svg">
<g clip-path="url(#clip0_11_139)">
<path d="M29.25 20.52C28.35 19.17 27.13 18.14 25.6 17.45C25.09 17.22 24.54 17.04 23.98 16.88C24 16.87 24.03 16.86 24.05 16.85C25.48 16.15 26.63 15.15 27.48 13.85C28.33 12.55 28.75 10.95 28.75 9.05001C28.75 6.25001 27.67 4.04001 25.5 2.43001C23.33 0.81001 20.23 0.0100098 16.2 0.0100098H0.5V35.01H17.2C21.63 35.01 24.97 34.18 27.22 32.53C29.47 30.88 30.6 28.55 30.6 25.55C30.6 23.55 30.15 21.88 29.25 20.53V20.52ZM15.75 4.05001C18.28 4.05001 20.25 4.52001 21.65 5.45001C23.05 6.38001 23.75 7.78001 23.75 9.65001C23.75 11.52 23.05 12.92 21.65 13.85C20.25 14.78 18.28 15.25 15.75 15.25H5.5V4.05001H15.75ZM23.35 29.55C21.88 30.48 19.77 30.95 17 30.95H5.5V19.3H17C19.77 19.3 21.88 19.77 23.35 20.7C24.82 21.63 25.55 23.12 25.55 25.15C25.55 27.18 24.82 28.62 23.35 29.55Z" fill="black"/>
</g>
<defs>
<clipPath id="clip0_11_139">
<rect width="30.1" height="35" fill="white" transform="translate(0.5)"/>
</clipPath>
</defs>
</svg>
