<svg width="33" height="36" viewBox="0 0 33 36" fill="none" xmlns="http://www.w3.org/2000/svg">
<g clip-path="url(#clip0_11_118)">
<path d="M19 35.8C16.33 35.8 13.88 35.36 11.62 34.48C9.36999 33.6 7.41999 32.35 5.76999 30.73C4.11999 29.11 2.82999 27.22 1.88999 25.05C0.95999 22.88 0.48999 20.5 0.48999 17.9C0.48999 15.3 0.95999 12.92 1.88999 10.75C2.81999 8.58 4.11999 6.69 5.78999 5.07C7.45999 3.45 9.40999 2.2 11.67 1.32C13.92 0.44 16.38 0 19.05 0C21.72 0 24.24 0.46 26.52 1.38C28.8 2.3 30.75 3.65 32.35 5.45L29.1 8.6C27.77 7.2 26.27 6.16 24.6 5.48C22.93 4.8 21.15 4.45 19.25 4.45C17.35 4.45 15.46 4.78 13.77 5.45C12.09 6.12 10.63 7.05 9.38999 8.25C8.15999 9.45 7.19999 10.87 6.50999 12.52C5.82999 14.17 5.48999 15.96 5.48999 17.9C5.48999 19.84 5.82999 21.63 6.50999 23.28C7.18999 24.93 8.14999 26.36 9.38999 27.55C10.62 28.75 12.08 29.68 13.77 30.35C15.45 31.02 17.28 31.35 19.25 31.35C21.22 31.35 22.93 31.01 24.6 30.32C26.27 29.64 27.77 28.58 29.1 27.15L32.35 30.3C30.75 32.1 28.81 33.47 26.52 34.4C24.24 35.33 21.73 35.8 19 35.8Z" fill="black"/>
</g>
<defs>
<clipPath id="clip0_11_118">
<rect width="31.85" height="35.8" fill="white" transform="translate(0.5)"/>
</clipPath>
</defs>
</svg>
